<?xml version="1.0" encoding="UTF-8"?>
<svg id="Layer_1" data-name="Layer 1" xmlns="http://www.w3.org/2000/svg" viewBox="0 0 1920 1080">
  <path d="M896.92,538.2c-2.87-.65-5.13.88-6.15,3.49l-2.54,6.52c-.95,2.44,1.05,5.59,3.49,6.15,2.87.65,5.13-.88,6.15-3.49.85-2.17,1.69-4.34,2.54-6.52.95-2.44-1.05-5.59-3.49-6.15Z"/>
  <path d="M945.44,545.6c-1.26-2.61-2.52-5.23-3.79-7.84-1.14-2.36-4.7-3.18-6.84-1.79-2.42,1.56-3.01,4.32-1.79,6.84,1.26,2.61,2.52,5.23,3.79,7.84,1.14,2.36,4.7,3.18,6.84,1.79,2.42-1.56,3.01-4.32,1.79-6.84Z"/>
  <path d="M695.13,731.2c-13.41,2.18-25.85-8.06-26.21-21.65-.17-6.67,3.11-12.75,5.02-18.98,1.87-6.12,2.42-12.46.16-18.56-2.03-5.47-5.52-10.1-7.99-15.34-3.22-6.8-1.03-12.78,1.49-19.44,5.44-14.37,12.14-28.2,19.82-41.5,3.22-5.58-5.41-10.62-8.63-5.05-8.82,15.27-16.7,31.43-22.4,48.15-2.43,7.12-2.83,13.93.19,20.93,2.73,6.33,8.16,12.16,8.98,19.17.92,7.92-4.3,15.51-5.86,23.08-1.44,6.95-.73,14.05,2.18,20.54,6.28,13.97,21.14,20.7,35.9,18.3,6.34-1.03,3.65-10.67-2.66-9.64Z"/>
  <path d="M893.4,592.37c-3.69-5.21-12.36-.22-8.63,5.05,2.21,3.13,6.49,8.65,3.77,12.62-2.74,4-5.48-1.05-6.5-3.65-2.09-5.32-4.07-15.21,1.5-19.14,5.22-3.68.23-12.35-5.05-8.63-11.84,8.34-10.8,29.86-.66,39.44,5.59,5.28,14.08,4.43,18.56-1.84,5.55-7.76,1.96-16.84-2.99-23.85Z"/>
  <path d="M956.45,591.44c-6.36-.85-6.3,9.16,0,10-.65-.09-.72,1.48-1.19,2.29-.67,1.16-2.49,2.73-3.54,3.47-2.63,1.85-5.65,2.58-7.59-.49-3.42-5.42,2.32-10.88,6.55-13.45,5.49-3.34.47-11.99-5.05-8.63-6.34,3.86-12.05,9.97-12.44,17.77-.36,7.25,4.34,14.8,11.71,16.29,7.75,1.57,16.22-4.47,19.69-11.13,3.74-7.17-.26-15.06-8.14-16.11Z"/>
  <path d="M1842.3,430.9c-36.04,2.59-72.19,3.25-108.29,2.01,32.04-34.24,63.69-69.69,84.17-112.26,1.94-4.02-2.41-10.07-6.84-6.84-28.18,20.53-57.03,40.1-86.56,58.64-7.31,4.59-14.66,9.12-22.05,13.58-3.33,2.01-6.72,4.29-10.48,5.41-4.9,1.46-9.44.01-13.87-2.17-15.81-7.79-30.93-17.42-46.26-26.12-17.88-10.14-35.75-20.27-53.63-30.41-4.44-2.52-9.18,2.47-6.84,6.84,21.32,39.88,47.04,77.26,76.56,111.52,4.21,4.88,11.25-2.22,7.07-7.07-25.07-29.11-47.25-60.56-66.33-93.87,11.56,6.55,23.11,13.1,34.67,19.66,16.26,9.22,32.32,19.07,48.92,27.66,7.3,3.78,15.11,6.02,23.19,3.35,8.1-2.68,15.49-8.23,22.7-12.67,15.52-9.55,30.87-19.39,46.04-29.5,11.76-7.84,23.4-15.87,34.93-24.04-21.52,36.8-50.93,68.32-80.07,99.32-3.03,3.23-.81,8.34,3.54,8.54,28.04,1.27,56.12,1.36,84.16.31-28,8.6-56.72,14.8-85.82,18.38-5,.61-6.08,7.02-3.14,9.27-2.67-.31-5.84,1.27-6.24,4.72-1.61,13.8-17.64,19.15-29.37,20.04-15.58,1.18-31.21.21-46.81,1.71-15.49,1.49-31.05,3.92-46.08,8.01-14.69,4-27.92,10.76-41.68,17.08-57.42,26.39-121.19,5.83-179.03-7.76-34.78-8.17-70.29-14.21-106-9.1-.84.12-1.52.4-2.06.78-4.48-3.77-9.63-6.84-14.93-9.18-9.5-4.21-19.6-7.36-29.8-10.07.32-.65.49-1.43.45-2.34-.68-17.27-2.09-36.38-15.56-48.92-5.53-5.15-12.4-8.41-19.99-8.81-8.75-.46-16.97,3.11-25.06,5.89-8.64,2.97-16.66,4.19-25.35.67-8.26-3.35-15.37-9.18-22.77-14.02-15.25-9.98-32.14-17.56-49.68-22.48-19.23-5.39-39.33-7.53-59.26-6.37-18.59-13.44-38.6-24.7-61.06-30.41-29.26-7.45-61.65-4.54-85.68,13.63-.72-1.52-2.12-2.75-4.21-2.96-34.19-3.45-77.38-5.15-98.72,27.72-4.74,7.3-6.51,15.94-10.78,23.46-3.96,6.97-10.54,11.29-17.47,14.93-14.19,7.46-27.7,13.35-37.36,26.82-10.2,14.22-13.86,32.41-10.32,49.48.3,1.46,1.06,2.43,2.02,3-4.2,3.97-8.19,8.15-11.94,12.55-9.28,10.89-17.07,22.92-23.03,35.93-2.66,5.81,5.95,10.9,8.63,5.05,15.39-33.57,43.27-60.1,76.38-75.23-10.4,25.33-13.73,52.68-9.74,79.91.1.68.3,1.24.58,1.72-5.8.88-11.63,1.51-17.5,1.79-12.72.62-27.3.49-37.81-7.76-5.01-3.93-12.13,3.1-7.07,7.07,10.96,8.6,24.35,10.94,38.01,10.88,12.9-.06,25.83-1.69,38.46-4.44,2.07.87,4.75.55,6.27-1.45.23-.06.46-.11.69-.16,29.89-7.53,57.93-21.27,84.18-37.2,5.49-3.33.47-11.98-5.05-8.63-23.87,14.48-49.06,27.06-76.01,34.64,7.74-27.4,9.79-55.99,6.33-84.28,16.58-4.83,33.99-6.9,51.47-5.72,1.15.08,2.1-.19,2.84-.67,4.82,14.96,9.65,29.92,14.47,44.88,1.97,6.1,11.63,3.49,9.64-2.66-5.29-16.42-10.59-32.84-15.88-49.25-1.39-4.32-6.65-4.27-8.89-1.68-.62-.34-1.34-.56-2.18-.62-41.59-2.81-83.54,12-115.39,38.7-2.57-13.77.81-28.06,8.67-39.62,8.52-12.52,21.71-17.63,34.59-24.4,6.16-3.24,12.25-7.13,16.8-12.49,5.19-6.1,7.66-13.51,10.61-20.82,5.87-14.52,18.17-24.26,32.82-29.17,18.7-6.27,38.82-4.57,58.16-2.63-1.12,1.1-2.22,2.22-3.29,3.41-11.87,13.15-19.22,30.01-18.92,47.86.11,6.43,10.11,6.45,10,0-.51-29.72,23.14-54.6,50.72-62.34,6.94-1.95,13.94-2.96,20.94-3.22-.07.13-.13.27-.19.41-9.25,23.06-12.53,48.16-9.52,72.82.17,1.42.81,2.51,1.69,3.3-21.04.54-42.16-1.4-62.8-5.91-6.27-1.37-8.95,8.27-2.66,9.64,27.31,5.97,55.3,7.65,82.91,5.2,1.67.7,3.69.62,5.14-.5,31.1-3.34,61.63-11.94,90.05-25.62,5.8-2.79.73-11.42-5.05-8.63-25.68,12.36-53.27,20.36-81.43,23.87,5.48-24,6.46-48.66,3.08-73.07,19.92,3.4,39.19,12.09,56.08,22.85,4.05,2.58,8.01,5.3,11.9,8.11.54.92,1.4,1.63,2.59,1.91,11.14,8.23,21.73,17.21,32.18,26.29,4.84,4.2,11.94-2.84,7.07-7.07-7.57-6.58-15.29-13.16-23.23-19.47,29.39.46,58.43,8.35,83.89,23.28,13.7,8.04,26.46,20.47,42.95,22.07,8.03.78,15.68-1.66,23.14-4.32,7.29-2.6,15.29-5.95,23.11-3.83,19.62,5.3,21.13,30.6,21.78,47.02-4.31-1.05-8.62-2.07-12.88-3.08-36.89-8.76-74.58-14.06-112.45-15.99-4.45-.23-5.81,4.48-4.11,7.52-12.18,8.09-22.77,18.33-24,34.01-.5,6.42,9.5,6.38,10,0,1.21-15.34,16.13-24.03,28.09-30.93,17.25,1.16,34.43,3.03,51.5,5.64-5.29,17.08-5.69,35.15-1.32,52.52.38,1.52,1.24,2.51,2.31,3.05-17.88-.45-35.74-1.48-53.55-3.13-9.12-.84-18.23-1.81-27.31-2.99-3.27-.43-16.2-2-14.73-7.6,1.63-6.23-8.01-8.89-9.64-2.66-2.99,11.45,9.03,17.87,18.55,19.49,15.72,2.67,31.9,3.8,47.79,4.97,18.11,1.33,36.27,2.03,54.43,2.14,2,2.43,6.25,2.87,8.05.03,12.18-.05,24.37-.37,36.54-.98,2.15-.11,4.29-.22,6.43-.35-2.44,5.03-1.77,10.88.47,16.29,1.41,3.41,3.64,6.8,4.25,10.5.84,5.18-2.02,10.22-4.22,14.7-3.72,7.56-7.73,15.61-14.79,20.61-7.35,5.2-16.5,7.05-25.13,8.93-2.34.51-3.44,2.16-3.57,3.97-2.97-4.31-5.97-8.6-8.98-12.88-.16-.23-.33-.43-.51-.62,6.02-2.38,12.09-4.64,18.21-6.77,6.04-2.09,3.45-11.76-2.66-9.64-14.39,4.99-28.51,10.7-42.35,17.07-5.84,2.69-.76,11.31,5.05,8.63,4.23-1.95,8.49-3.82,12.77-5.63.11.65.38,1.32.85,2,5.17,7.36,10.27,14.77,15.26,22.26,1.03,1.55,1.94,3.47,3.2,4.82.36,1.34,1.21,2,2.54,1.99-.34.1-.67.19-1.01.29-3.3,1.11-8.83-.09-12.32-.2-17.95-.54-35.89-1.09-53.84-1.63-2.7-.08-5.01,2.36-5,5,.09,29-.07,58.01-.5,87.01-.22,14.5-.5,29-.84,43.5-.24,10.04.54,21.28-3.48,30.71-34.61-29.01-67.3-60.29-97.73-93.67-7.97-8.74-15.37-18.07-23.51-26.63-6.9-7.26-16.77-9.48-23.44-.66-3.27,4.32-5.7,9.41-8.4,14.1-3.32,5.76-6.64,11.52-9.95,17.29l-18.91,32.84c-13.36,23.2-26.72,46.4-40.07,69.6-18.2-25.3-27.15-55.9-38.79-84.5-2.34-5.74-4.37-14.77-11.68-15.72-3.96-.52-7.53,1.82-10.92,3.52-4.75,2.38-9.51,4.77-14.26,7.15-17.53,8.79-35.06,17.57-52.6,26.36-15.67,7.85-31.34,15.7-47,23.56,13.71-30.15,29.08-59.51,46.05-87.97,9.62,3.15,19.59,5.23,29.8,6.24,6.4.63,6.36-9.38,0-10-17.08-1.67-33.52-6.91-48.52-15.24-5.63-3.13-10.68,5.51-5.05,8.63,4.64,2.58,9.39,4.85,14.23,6.85-17.73,29.85-33.68,60.7-47.81,92.39-1.22-.96-2.85-1.42-4.34-.87-1.73.64-3.57,1.38-5.41,1.61-.43.06-1.18.13-1.64.05-.2-.03-.56-.21-.82-.33-.05-.09-.12-.21-.19-.3,2.06-.99,3.16-3.67,2.56-5.84-.76-2.76-3.49-4.03-6.15-3.49-6.64,1.33-7.97,9.44-5.1,14.6,3.54,6.37,11.26,5.86,17.37,4.01-.06,1.79.73,3.42,2.03,4.38-6.8,5.61-11.43,13.35-12.63,22.26-.4,2.99,1.21,6.52,4.82,6.33,10.49-.56,20.92-1.69,31.27-3.37-14.79,12.4-23.26,31.35-31.74,48.82-6.06,12.48-12.85,25.11-23.78,34.04-10.21,8.35-23.05,12.63-35.52,16.3-12.62,3.71-25.4,6.92-37.42,12.34-13.02,5.87-23.85,15.09-34.58,24.33-11.12,9.57-22.49,18.54-36.24,24.06-13.04,5.23-27.03,7.73-41.01,8.48-16.41.87-32.92-.47-49.17-2.76-7.93-1.12-15.84-2.43-23.71-3.9-5.24-.98-11.39-2.03-15.27-5.85,2.04-2.43,4.08-4.86,6.12-7.3.67-.8,1.04-1.65,1.18-2.51,1.3.17,2.67-.25,3.85-1.53,33.63-36.7,86.71-45.21,123.5-77.94,3.08-2.74.77-8.96-3.54-8.54-41.68,4.13-83.36,8.25-125.03,12.38-10.58,1.05-21.17,2.1-31.75,3.14-4.21.42-9.41,1.69-13.59.59-4.22-1.1-7.41-5.18-10.38-8.14-13.11-13.05-25.44-26.9-36.86-41.46-13.15-16.77-25.02-34.52-35.68-52.97-2.51-4.33-9.26-2.4-9.32,2.52-.13,11.83,3.67,22.86,8.1,33.67,4.87,11.89,9.84,23.75,14.76,35.62,8.97,21.64,17.94,43.29,26.92,64.93-38.12-2.23-76.24-4.45-114.35-6.68-6.11-.36-6.12,7.85-1.33,9.82,45.18,18.62,90.36,37.24,135.54,55.85-.48.38-.91.88-1.27,1.52-4.17,7.43-3.14,16.41,1.87,23.21,5.51,7.47,14.34,11.43,22.94,14.22,19.45,6.31,40.24,5.67,60.4,7.06,37.44,2.58,77.9,15.47,114.52,1.51,18.48-7.05,31.54-21,46.58-33.18,15.16-12.29,33.42-20.49,52.67-23.68,19.01-3.15,39.55-.55,56.62-11.25,13.75-8.62,22.14-23.04,28.73-37.43,8.71-19.03,16.56-38.01,27.98-55.68,11.11-17.19,24.31-32.88,39.17-46.93.07,11.7,1.28,23.34,3.56,34.85.89,4.5,6.94,4.52,9.14,1.19,6.15-9.32,11.96-18.85,17.47-28.56,1.73,2.04,3.47,4.07,5.22,6.1,2.63,3.04,5.58,5.73,9.89,4.46,7.14-2.11,12.98-12.57,16.11-18.74,2.91-5.73-5.72-10.79-8.63-5.05-1.2,2.36-2.5,4.67-4.01,6.85-1.37,1.97-4.01,3.96-5.4,6.01-.21-.18-.51-.38-.89-.6-.71-1.28-2.06-2.42-3-3.52-2.2-2.58-4.4-5.16-6.61-7.74-2.08-2.43-6.4-1.65-7.85,1.01-4.36,7.97-8.96,15.79-13.75,23.5-1.19-9.76-1.53-19.59-1.06-29.47.27-5.66-7.42-6.32-9.5-2.04-1.35-.23-2.82.1-4.11,1.28-26.96,24.56-48.83,54.61-63.62,87.96-6.23,14.03-11.47,28.97-20.72,41.39-4.66,6.26-10.53,11.61-17.62,14.98-8.43,4-17.97,4.88-27.16,5.54-18.49,1.34-35.88,3.92-52.91,11.66-16.62,7.55-29.55,19.38-43.25,31.1-14.24,12.19-30,19.86-48.82,21.59-18.38,1.69-36.86-.82-55.05-3.27-10.01-1.35-20.02-2.75-30.1-3.57-10.87-.88-21.78-1.03-32.66-1.87-11.18-.86-22.44-2.5-32.93-6.61-7.92-3.1-20.29-11.08-14.59-21.23,1.28-2.28.61-4.48-.84-5.89,2.68-2.01,2.86-7.55-1.4-9.3-36.67-15.11-73.35-30.23-110.02-45.34l92.67,5.41c2.96.17,6.04-3.38,4.82-6.33-9.65-23.29-19.31-46.58-28.96-69.87-4.7-11.34-9.4-22.67-14.1-34.01-.89-2.15-1.78-4.3-2.65-6.47,15.87,23.8,33.92,46.16,53.93,66.61,6.07,6.2,12.41,14.28,21.53,15.5,4.59.62,9.27-.2,13.84-.65,5.62-.56,11.25-1.11,16.87-1.67,21.83-2.16,43.66-4.32,65.49-6.49,19.31-1.91,38.62-3.82,57.92-5.74-35.49,24.8-80.52,35.01-110.54,67.77-.7.76-1.1,1.58-1.27,2.41-1.28-.16-2.63.28-3.77,1.63-2.99,3.56-5.97,7.12-8.96,10.68-1.47,1.75-1.94,3.99-.78,6.06,6.47,11.6,21.28,12.85,33.04,14.84,14.69,2.48,29.49,4.52,44.38,5.27,28.74,1.44,58.79-2.32,83.5-18.09,12.83-8.18,23.46-19.16,35.49-28.38,11.55-8.86,24.3-14.26,38.17-18.39,13.01-3.88,26.26-7.08,38.66-12.72,12.66-5.75,22.99-14.48,30.95-25.86,16.89-24.16,23.29-63.24,53.91-74.84,4.3-1.63,4.15-7.11,1.47-9.19-.67-2.41-2.9-4.46-6.04-3.76-12.92,2.88-25.97,4.83-39.14,5.85,1.85-4.79,5-8.89,9.53-11.91,3.06-2.04,2.71-5.75.85-7.88,12.63-6.33,25.26-12.66,37.89-18.99.47,1.3,1.49,2.42,3.19,2.94,18.16,5.62,31.18,21.99,50.64,24.42,10.66,1.33,20.97-1.85,31.48-3.03,5.49-.62,10.76-.48,16.05,1.2,5.18,1.64,9.58,3.16,15.06,2.03.86-.18,1.54-.51,2.08-.95,5.55,11.1,11.97,21.68,19.79,31.44,2.04,2.55,6.39,1.53,7.85-1.01,7.54-13.1,15.09-26.2,22.63-39.3,1.07,1.1,2.66,1.64,4.61.97,11.2-3.8,22.77-6.56,34.55-7.83,12.07-1.3,24.02-.39,36.1-.65,10.02-.22,20.66-1.86,29.08-7.71,3.82-2.66,6.72-5.96,9.64-9.53,2.53-3.1,5.39-7.34,9.78-7.35,1.26,0,2.27-.39,3.04-1.01,3.27,3.22,6.55,6.44,9.86,9.62,17.97,17.24,36.58,33.78,55.76,49.66,2.62,2.17,5.88,1.79,7.85-1.01,3.86-5.48,5.66-11.71,6.55-18.15,2.66,2.6,6.33,3.99,10.26,3.94,2.69-.03,5.02-2.27,5-5-.02-3.38-.04-6.77-.06-10.15,4.51,11.82,12.29,22.33,20.19,32.48,6.18,7.94,12.52,15.83,17.55,24.58,5.32,9.25,8.68,19.38,11.42,29.66,5.4,20.28,8.42,41.61,18.55,60.29,10.21,18.83,27.55,31.32,46.7,40.03,21.84,9.94,45.06,17.05,67.65,25.07,25.43,9.03,50.87,18.06,76.3,27.09l77.25,27.42c24.57,8.72,49.22,18.31,75.2,21.83,24.39,3.3,49.36.41,70.2-13.46,17.84-11.87,30.97-30.37,31.53-52.29.07-2.95-1.98-4.54-4.25-4.79,46.08-27.65,107.13-35,138.43-83.17,2.31-3.56-1.55-8.75-5.65-7.34-37.16,12.73-74.32,25.46-111.48,38.19l38.48-46.71c7.96-9.67,16.1-19.22,23.87-29.03,6.84-8.64,12.87-18.04,12.71-29.44-.06-4.5-5.34-6.38-8.54-3.54-29.88,26.62-61.42,51.31-94.5,73.83-8.1,5.51-16.29,10.9-24.56,16.15-7.8,4.96-15.8,10.58-24.93,12.76-9.67,2.31-20,.66-29.75-.21-10.91-.97-21.82-1.94-32.72-2.91-24.13-2.15-48.26-4.3-72.39-6.45-4.34-.39-6.57,5.72-3.54,8.54,31.1,28.79,71.1,43.91,110.35,58.05-.11,2.59,1.47,5.13,4.79,4.87,8.34-.66,13.86,8.57,11.31,16.1-3.24,9.58-14.06,13.88-23.38,14.14-10.95.31-21.92-3.05-32.28-6.25-10.08-3.12-19.98-6.85-29.67-11.02-37.55-16.16-72.32-38.03-109.85-54.25-19.73-8.52-40.09-14.18-60.55-20.59-19.67-6.16-37.89-14.78-52.85-29.24-13.43-12.99-23.48-29.15-29.06-46.98-6.01-19.21-8.14-39.65-17.47-57.74-9.78-18.97-27.09-32.01-41.84-46.85-7.61-7.65-14.32-15.9-19.14-25.61-3.78-7.61-6.43-15.71-8.73-23.9,2.95,3.96,6.27,7.63,9.97,10.97,2.52,2.27,7.7,1.75,8.36-2.21,1.07-6.46,1.55-12.95.93-19.49-.3-3.16-.77-6.32-1.45-9.43-.49-2.28-2.73-7.61-.83-9.68,1.36-1.48,4.46.72,6.6.57,2.74-.2,5.21-1.64,6.97-3.71,3.93-4.6,2.87-10.59,1.05-15.84-2.1-6.04-11.76-3.44-9.64,2.66.37,1.08,1.36,3.08,1.22,4.31-.3,2.61-1,1.56-2.81,1.49-2.31-.09-4.02-.41-6.26.48-4.15,1.65-6.78,5.63-7.43,9.94-.81,5.43,1.34,10.71,2.18,16.01.51,3.26.74,6.58.71,9.89-3.09-3.85-5.75-8.01-8-12.56-2.16-4.38-7.65-2.52-8.93,1.15-3.08-.2-6.47,2.3-5.45,6.2,5.79,22.16,12.67,42.96,28.31,60.24,13.59,15.02,30.92,26.94,41.98,44.16,12.2,18.99,13.72,42.18,20.58,63.2,6.22,19.06,17.16,36.46,31.67,50.31,15.87,15.15,35.09,24.44,55.84,31.01,22.64,7.17,45.11,13.42,66.79,23.3,40.61,18.51,78.52,42.78,120.54,58.22,21.07,7.74,50.77,19.09,71.05,3.96,8.07-6.02,13.38-15.93,10.91-26.11-2.06-8.52-9.22-15.8-17.92-16.79-.32-1.6-1.36-3.07-3.3-3.77-33.51-12.06-67.99-24.6-96.44-46.4,17.05,1.52,34.1,3.04,51.14,4.55l33.72,3c10.13.9,20.56,2.52,30.73,1.4,9.67-1.07,18.16-5.11,26.38-10.12,8.55-5.22,16.95-10.72,25.28-16.28,17.07-11.39,33.75-23.36,50.02-35.86,13.72-10.54,27.15-21.45,40.28-32.72-2.77,4.62-6.4,8.86-9.75,12.93l-23.12,28.06c-15.41,18.71-30.82,37.42-46.24,56.13-2.88,3.5-.31,10.13,4.86,8.36,37.46-12.83,74.92-25.67,112.38-38.5-32.39,35.33-86.53,43.34-126.37,67.74-4.4,2.69-2.03,8.79,1.92,9.35-.75.79-1.24,1.88-1.28,3.26-.47,18.78-12.38,34.58-27.78,44.44-17.71,11.34-38.26,14.1-58.91,11.93-24.83-2.61-48.58-11.79-71.94-20.08l-71.59-25.42c-24.49-8.69-48.98-17.39-73.48-26.08-22.5-7.99-45.21-15.53-67.49-24.13-18.78-7.25-38.24-16.75-50.21-33.61-11.47-16.16-15.22-36.13-19.7-55.03-2.62-11.04-5.51-22.02-10-32.47-4.13-9.6-9.85-18.19-16.16-26.49-12.3-16.18-28.44-32.93-29.18-54.42-.17-5.09-6.49-6.16-8.99-3.17-2.97-1.31-7.24.15-7.22,4.37l.11,18.51c-1.09-1.58-2.76-1.97-4.33-1.56.05-1.71.09-3.42.14-5.12.38-15.16.69-30.31.93-45.47.23-14.51.38-29.01.48-43.52.22-.22.42-.47.61-.74,2.25-3.27,7.2-3.95,10.67-5.27,3.89-1.49,7.35-3.41,10.05-6.65,5.2-6.24,5.81-15.59,12.35-20.7,3.49-2.73,1.19-6.92-2.22-7.98,4.83.15,9.65.29,14.48.44,5.26.16,10.85.87,16.08.21,9.29-1.16,11.64-9.01,6.87-16.45-2.01-3.14-4.08-6.25-6.17-9.35.72.18,1.52.21,2.39.02,8.74-1.9,17.7-3.96,25.45-8.62,7.73-4.64,13.16-11.74,17.41-19.56,4.1-7.56,9.43-16.53,8.7-25.44-.37-4.45-2.3-8.4-4.15-12.39-1.47-3.17-3.87-8.21-1.03-11.3,1.17-1.28,1.51-2.72,1.3-4.07,9.06-.65,18.1-1.46,27.13-2.41-1.44,1.44-2.19,3.65-1.17,5.97.61,1.38,3.13,6.51.77,7.6-.85.39-3.79-1.1-4.58-1.3-1.69-.42-3.46-.7-5.19-.32-5.92,1.31-10.56,8.95-5.25,13.74,3.57,3.23,8.46.07,8.66-3.54.08.03.17.06.25.08,1.52.46,2.97.96,4.55,1.15,3.46.43,6.75-.66,9.14-3.23,5.24-5.61,3-13.07.27-19.25-.3-.68-.69-1.22-1.13-1.62,1.96-.22,3.92-.43,5.88-.67,6.31-.76,6.39-10.76,0-10-30.19,3.62-60.57,5.56-90.97,5.78,2.66-17.38,1.28-35.12-4.24-51.9,6.72,1.29,13.42,2.67,20.1,4.19,16.53,3.76,33.2,7.89,49.22,13.49,14.1,4.93,28.49,13.58,30.87,29.59.94,6.34,10.58,3.65,9.64-2.66-.86-5.83-3.16-11.02-6.42-15.57,64.65-8.01,126.64,21.72,190.06,28.78,30.09,3.35,61.08,1.69,89.22-10.3,14.81-6.31,28.62-14.01,44.26-18.28,16.03-4.37,32.64-6.87,49.19-8.15,25.98-2.02,76.04,6.24,80.42-31.25.22-1.88-.5-3.19-1.63-3.96.32.02.65.01,1.01-.03,41.92-5.16,83-15.27,122.43-30.46,4.84-1.86,4.75-10.26-1.33-9.82ZM736.93,489.52s.09-.03.13-.05c3.31,28.24.45,56.88-8.02,84.01-1.39.31-2.78.61-4.17.89.35-.83.5-1.79.35-2.85-3.88-26.54.16-54.02,11.4-78.35.59-1.29.63-2.54.3-3.64ZM911.44,441.58c-2.65.22-5.3.42-7.96.57.52-.76.79-1.75.64-3-2.92-23.91.19-47.8,9.16-70.16.44-1.11.47-2.1.21-2.94.46.03.91.08,1.37.11.01.11.02.22.04.34,3.9,25.02,2.63,50.55-3.45,75.09ZM1159.4,537.23c-3.82-.02-7.64-.06-11.45-.14,2.13-.84,3.76-2.95,3.04-5.81-4.04-16.07-3.4-32.53,1.66-48.26.66.11,1.31.23,1.97.35-.11.7-.04,1.47.26,2.32,5.87,16.65,7.47,34.23,4.53,51.53ZM844.11,792.1c-4.69.97-10-2.45-14.57-3.28-4.89-.89-9.81-.8-14.72-.22-10.1,1.19-20.55,4.64-30.78,2.88-16.26-2.8-28.44-16.09-43.49-22.41,15.69-7.86,31.37-15.72,47.06-23.58,8.32-4.17,16.64-8.34,24.96-12.51,1.52-.76,4.47-2.99,6.24-3.13,1.19-.09-.54-.9.81-.15.54.3.86,1.8,1.11,2.36,1.63,3.73,3.13,7.52,4.62,11.3,5.75,14.57,11.01,29.34,17.18,43.74.7,1.65,1.43,3.28,2.16,4.91-.19.02-.38.05-.57.09ZM1002.98,763.79c-7.78,8.82-19.35,10.58-30.56,10.64-12.06.06-23.94-.59-35.97.83-10.76,1.28-21.32,3.53-31.64,6.77,14.45-25.09,28.9-50.19,43.35-75.28,2.67-4.64,5.12-9.57,8.12-14,1.72-2.54,2.98-3.54,5.88-1.96,2.32,1.26,4.21,4,5.89,5.95,7.03,8.15,14.12,16.23,21.38,24.17,9.24,10.11,18.7,20.01,28.35,29.74-6.29,2.14-10.28,8.01-14.8,13.14ZM1134.95,652.62c-7.21,5.65-7.31,15.24-13.16,21.66-2.84,3.12-7.29,3.86-11.07,5.31-.81.31-1.58.65-2.33,1,.04-9.94.06-19.89.04-29.83,9.5.29,19,.58,28.49.86-.67.17-1.34.49-1.98.99Z"/>
  <path d="M689.16,411.86c-4.01-6.02-13.07-18.04-20.42-9.2-2.37,2.84-3.33,6.62-3.98,10.18-.24,1.31-.37,2.95-.65,4.57-5.8-10.66-12.16-20.98-19.11-30.94-2.7-3.88-9.37-2.74-9.32,2.52.19,19.68,2.28,39.28,6.22,58.52-11.18-10.02-25.82-16.43-40.61-19.55-32.28-6.8-65.71.25-97.97-6.96-14.83-3.32-29.07-8.85-42.21-16.48-13.93-8.1-25.62-18.91-38.06-29.02-23.74-19.28-51.63-30.74-81.48-36.75-17.59-3.54-35.79-4.02-53.21-8.31-15.1-3.72-30.79-12.17-35.61-28.01-.34-1.12-.94-1.95-1.69-2.52,34.2-32.39,67.32-65.92,99.28-100.52,3.32-3.59.09-9.72-4.86-8.36-33.78,9.32-66.88,20.89-99.13,34.6-8.1,3.45-16.15,7.03-24.13,10.75-7.87,3.67-15.34,7.81-24.22,5.27-8.55-2.45-16.83-6.41-25.09-9.67-8.64-3.41-17.27-6.81-25.91-10.22-19.74-7.78-39.48-15.57-59.22-23.35-4.46-1.76-7.32,3.85-5.65,7.35,14.8,30.79,40.43,53.81,66.42,75.23-28.78,6.22-57.12,14.28-84.87,24.16-5.52,1.97-4.23,9.17,1.33,9.82,42.65,5.02,85.3,10.04,127.95,15.06-.01.12-.03.23-.04.36-.76,14.4,8.76,27.23,21,33.97,14.69,8.1,32.15,8.63,48.46,10.27,34.51,3.47,69.8,7.87,101.98,21.57,29.15,12.41,52.94,33.62,79.86,49.83,13.05,7.86,27.09,14.56,42.04,17.82,17.85,3.89,36.02,2.36,54.1,1.55,17.92-.8,37.24-.75,53.49,7.94,14.89,7.96,22.72,22.53,29.04,37.49-12.18.09-24.25,2.11-35.83,6.01-4.44,1.49-5.06,8.44,0,9.64,8.95,2.13,17.9,4.26,26.85,6.4,4.48,1.07,8.95,2.13,13.43,3.2.83.2,3.6.55,6.02,1.07-3.21,2.05-6.42,4.11-9.62,6.16-4.42,2.83-10.04,5.38-13.74,9.13-8.25,8.36,5.1,18.76,11.37,23.31,5.22,3.78,10.22-4.89,5.05-8.63-2.38-1.72-6.44-4.49-7.8-7.24-1.21-.53-1.26-.97-.15-1.33.79-.51,1.59-1.02,2.38-1.52,1.59-1.02,3.17-2.03,4.76-3.05,6.35-4.06,12.7-8.13,19.05-12.19,1.92-1.23,2.84-3.42,2.3-5.65-2.18-8.92-15.51-9.36-22.71-11.07-4.67-1.11-9.34-2.22-14.01-3.34,6.6-.86,13.29-1.1,20.06-.72,2.2.12,3.64-.97,4.34-2.47.83-1.03,1.14-2.46.45-4.17-5.84-14.53-12.05-29.65-23.65-40.62-11.3-10.69-26.24-15.69-41.42-17.63-17.12-2.18-34.3-.15-51.46.27-17.18.42-33.65-1.76-49.5-8.62-28.15-12.19-51.25-33.23-77.42-48.83-29.4-17.52-62.66-25.78-96.29-30.45-18.79-2.61-37.94-3.32-56.62-6.52-16.08-2.75-36.29-11.69-35.78-30.85,5.32-.39,4.94-9.32-1.03-10.02l-114.29-13.45c24.12-7.71,48.65-14.09,73.49-19.08,3.5-.7,5.06-6.03,2.21-8.36-24.31-19.82-49.29-40.37-65.82-67.24,31.19,12.42,62.31,25.15,93.74,36.92,7.91,2.96,15.53,3.57,23.57.69,8.1-2.9,15.8-7.13,23.65-10.64,16.55-7.39,33.36-14.17,50.4-20.36,13.87-5.04,27.88-9.66,42.01-13.9-28.12,29.92-57.11,59.02-86.92,87.25-2.55,2.41-1.61,5.61.53,7.3-1.28,1.07-1.98,2.77-1.34,4.87,9.13,30.05,42.54,36.04,69.49,39.25,30.67,3.64,61.58,10.68,88.07,27.22,13.48,8.41,24.83,19.54,37.31,29.27,11.98,9.34,25.04,16.87,39.14,22.52,14,5.61,28.76,9.04,43.77,10.45,16.89,1.59,33.87.63,50.8,1.11,28.77.82,66.07,8.56,77.07,39.43,2.14,6.02,11.81,3.43,9.64-2.66-.24-.68-.5-1.35-.77-2.01-.04-.28-.09-.57-.17-.86-5.9-20.27-9.6-41-11.07-61.99,4.65,7.53,9,15.23,13.03,23.12,1.2,2.34,4.66,3.19,6.84,1.79,5.04-3.22,6.73-8.13,7.72-13.78.38-2.15,1.38-4.68,1.81-6.9.23.23.47.44.69.68,1.52,1.61,2.81,3.33,4.04,5.16,3.55,5.33,12.21.33,8.63-5.05Z"/>
  <path d="M1644.49,451.95c-26.51-2.03-52.37,2.95-76.7,13.44-23.33,10.06-45.72,24.21-71.36,27.54-13.79,1.79-27.92.72-41.73-.38-14.22-1.13-28.39-2.83-42.47-5.12-27.67-4.49-54.53-12.05-81.8-18.33-28.53-6.57-58-10.87-86.94-4.95,2.23-8.49,6.01-16.27,11.37-23.39,2.7-3.58-1.75-8.5-5.65-7.34-4.09,1.22-8.45,3.15-12.66,3.77-3.23.48-3.26-.1-3.72-3.49-.27-1.95-.26-3.94-.45-5.9-.63-6.68-2.61-12.84-8.59-16.53-5.49-3.39-10.52,5.26-5.05,8.63,3.69,2.27,3.59,7.45,3.88,11.27.33,4.43.75,9.33,3.44,13.05,3.01,4.17,7.96,4.24,13.04,3.06-2.95,5.96-5.09,12.32-6.34,18.92-.56,2.98,1.3,5.14,3.54,5.94.96,1.88,2.95,3.24,5.6,2.6,27.24-6.55,55.19-2.84,82.16,3.17,26.98,6.01,53.5,13.71,80.77,18.38,26.8,4.59,54.92,8.57,82.17,7.4,25.99-1.11,48.64-12.18,71.69-23.18,12.88-6.15,25.91-11.78,39.84-15.11,15.07-3.61,30.53-4.63,45.96-3.45,6.42.49,6.39-9.51,0-10Z"/>
  <path d="M516.93,100.45c-2.28-38.32-43.09-53.98-76.43-61-21.22-4.47-42.93-6.86-64.64-7.5-21.79-.64-43.64,1.14-65.4-.51-39.72-3.02-77.07-26.83-117.64-18.78-19.53,3.87-36.85,13.17-57.27,12.55-18.18-.55-36.27-5.57-54.52-3.88-8.69.8-16.88,3.12-24.32,7.59-1.98,1.19-2.67,3-2.49,4.74-10.63,13.37-18.75,28.38-23.66,44.61-4.58,15.14-8.28,34.61,1.84,48.51,10.13,13.93,28.52,15.02,43.91,20.06,18.63,6.11,35.11,17.04,51.06,27.88,31.05,21.1,65.99,45.22,106.22,39.27,36.16-5.36,60.88-34.54,91.1-51.48,16.91-9.48,35.75-15.7,55.11-18.39,20.85-2.9,40.96.05,61.7,2.08,18.23,1.78,37.21,1.23,53.42-7.97,13.95-7.92,22.97-21.94,22.03-37.77ZM502.42,117.08c-7.92,13.38-25.22,18.9-40.35,19.57-19.74.87-39.15-4.04-58.84-4.3-18-.23-36.16,2.49-53.24,7.95-16.8,5.37-32.29,13.37-46.61,23.35-13.47,9.38-26.12,19.9-40.34,28.25-14.77,8.67-30.85,13.87-48.32,12.44-18.68-1.53-36.27-9.66-52.06-18.95-30.52-17.98-57.12-42.16-92.55-51.1-7.37-1.86-15.19-3.3-21.81-7.12-7.41-4.28-10.9-11.6-11.42-19.72-1.07-16.51,5.51-34.3,13.32-48.73,4.14-7.64,9.06-14.87,14.73-21.54.34-.4.6-.82.8-1.24,13.97-6.6,30.09-4.62,45.2-2.75,17.65,2.18,34.58,3.8,51.97-.92,18.38-4.98,34.88-12.2,54.45-10.71,18.62,1.41,36.41,8,54.2,13,18.93,5.32,37.86,7.8,57.58,7.92,20.4.12,40.73-.84,61.12.51,20.13,1.34,40.2,4.29,59.72,9.3,16.62,4.27,34.05,10.63,45.5,23.6,9.71,11.01,14.81,27.94,6.97,41.19Z"/>
  <path d="M1860.59,106.28c-8.81-17.51-27.22-26.48-44.53-33.57-19.7-8.06-40.87-13.28-62.24-13.37-21.82-.1-41.89,7.06-62.81,12.14-22.76,5.53-45.33,4.04-68.05-.92-21.7-4.74-42.81-11.88-64.58-16.36-36.28-7.46-79.94-6.78-107.01,22.5-13.7,14.82-20.52,34.57-25.27,53.82-2.64,10.67-4.54,21.51-5.8,32.44-1.18,10.26-2.18,20.81-.72,31.09,1.28,9.04,5.03,17.27,11.69,23.61,6.39,6.08,14.28,10.12,21.63,14.87,17.08,11.03,28.69,26.03,38.98,43.25,4.58,7.67,9.72,15.08,17.24,20.14,7.26,4.89,16.2,6.83,24.87,6.71,20.1-.28,37.7-10.31,56.71-15.31,9.71-2.56,19.43-3.43,29.01-.3.13.17.27.34.43.5,13.95,14.24,30.52,25.74,48.88,33.55,9.26,3.94,19.27,7.26,29.48,6.54,8.61-.61,16.71-3.89,23.69-8.89,14.77-10.59,24.98-26.16,37.75-38.87,14.34-14.28,30.6-26.17,48.28-35.98,15.11-8.39,31.27-16.1,43.39-28.75,13.76-14.35,18.27-33.19,18.23-52.62-.04-18.35-.86-39.53-9.25-56.21ZM1857.06,186.2c-4.84,17.12-17.94,28.33-32.67,37.18-15.06,9.05-30.85,16.57-45.11,26.95-14.95,10.88-28.2,23.5-40.23,37.51-10.08,11.74-21.2,26.1-37.26,29.31-9.48,1.89-19.26-1.19-27.95-4.81-9-3.75-17.6-8.54-25.62-14.06-7.6-5.22-14.56-11.25-21-17.83-.32-.33-.66-.59-1-.81-.55-.75-1.34-1.38-2.4-1.77-18.49-6.84-37.79-.22-55.33,6.34-15.46,5.78-35.05,13.12-51.02,5.04-8.02-4.06-12.91-11.71-17.35-19.2-4.47-7.54-9-14.9-14.58-21.69-5.5-6.7-11.77-12.73-18.62-18.06-6.75-5.25-14.16-9.35-21.27-14.05-7.54-4.99-13.39-11.04-15.55-20.07-2.2-9.19-1.19-19.14-.29-28.45,1.93-20.18,6.14-40.91,13.85-59.72,6.9-16.85,18.11-30.63,34.56-38.81,15.65-7.78,33.66-10.03,50.96-9.03,42.05,2.43,80.96,22.04,123.02,24.79,20.83,1.36,40.12-3.31,60.02-8.84,19.9-5.53,39.48-8.46,60.1-5.39,19.17,2.85,38.26,9.22,55.41,18.26,7.93,4.18,15.69,9.35,20.94,16.77,5.27,7.45,7.59,16.49,8.92,25.4,2.63,17.64,4.4,37.7-.51,55.05Z"/>
  <path d="M1721.94,664.09c-9.49-13.55-23.37-23.43-38.25-30.33-16.93-7.86-36.07-13.41-54.85-13.23-17.66.17-33.46,7-47.97,16.61-13.67,9.07-26.17,19.95-40.69,27.73-15.54,8.32-32.84,10.95-49.85,5.63-8.61-2.7-16.45-7.27-23.07-13.38-1.2-1.11-2.56-1.48-3.84-1.34-13-7.81-29.38-3.81-40.3,5.86-13.61,12.05-15.93,32-13.73,49.03,1.25,9.68,4.42,19.06,5.34,28.78.99,10.49-2,18.98-10.42,25.56-14.63,11.43-32.92,17.12-47.5,28.8-25.86,20.71-35.65,62.48-16.59,90.95,10.75,16.05,28.16,19.23,46.21,16.07,19.34-3.38,38.04-10.73,56.27-17.79,18.42-7.13,36.78-14.61,55.92-19.63,9.6-2.52,19.37-4.44,29.27-5.23,10.55-.84,21.14-.43,31.71-.34,20.56.18,39.99-2.14,58.4-11.85,17.55-9.26,33.12-22.61,47.52-36.13,14.56-13.68,27.89-28.61,39.96-44.53,11.6-15.31,22.17-32.61,25.99-51.68,3.46-17.23.64-35.04-9.54-49.56ZM1685.96,773.82c-12.24,14.46-25.66,27.93-40.08,40.22-13.92,11.87-29.12,23.44-46.69,29.24-19.18,6.33-39.45,4.17-59.28,4.39-18.69.21-36.94,3.67-54.76,9.2-17.54,5.45-34.51,12.51-51.65,19.04-17.05,6.49-35.1,13.68-53.35,15.82-8.73,1.03-18.08.4-25.2-5.3-6.32-5.06-10.14-12.82-12.31-20.47-4.33-15.25-2.19-32.13,5.27-46.06,8.21-15.32,22.29-24.14,37.2-32.08,14.4-7.67,32.64-15.4,38.17-32.2,5.71-17.36-3.89-35.6-4.59-53.03-.63-15.84,4.48-33.33,20.68-39.36,6.59-2.45,13.53-2.3,19.54,1.49.96.6,1.9.83,2.78.78,11.89,10.38,26.76,16.56,42.55,17.7,15.93,1.15,31.12-3.84,44.75-11.81,27.54-16.1,49.95-42.36,84.47-40.79,17.54.8,35.66,6.51,51.14,14.72,13.29,7.05,25.63,16.82,32.72,30.35,18.14,34.57-9.76,72.64-31.34,98.14Z"/>
  <path d="M572.3,692.35c-2.19-17.14-9.05-38.57-25.12-47.48-18.94-10.5-44.64-5.74-64.73-1.87-23.38,4.5-46.27,8.81-70.18,8.96-11.07.07-23.14.36-34-2.05-10.95-2.43-13.37-14.09-15.36-23.76-4.59-22.33-1.58-45.52,1.89-67.78,1.72-11.07,3.6-22.11,5.04-33.22,1.24-9.57,3.44-20.65-1.32-29.63-8.74-16.48-32.6-16.14-48.08-12.42-42.13,10.12-66.79,50.37-90.5,83.28-6.51,9.04-13.02,18.08-19.54,27.11-11.89,11.9-13.08,29.91-12.13,45.98,1.16,19.47,2.92,40.02,11.05,57.97,8.07,17.81,23.29,29.26,39.08,39.77,7.92,5.28,15.98,10.43,23.14,16.75,6.68,5.9,12.67,12.54,18.31,19.44,22.69,27.76,41.8,60.46,78.14,71.42,38.15,11.51,80.1-1.26,114.73-17.99,34.38-16.62,66.21-42.22,81.3-78.38,7.35-17.6,10.73-37.07,8.3-56.09ZM561.96,714.15c-3.58,37.13-27.76,67.81-57.72,88.04-29.91,20.19-67.59,35.63-103.96,36.14-18.32.26-36.26-4.07-51.49-14.56-13.56-9.34-24.13-22.54-34.05-35.53-10.03-13.12-19.71-26.68-31.62-38.17-12.55-12.1-27.85-20.33-41.67-30.75-15.76-11.88-24.75-27.05-28.63-46.42-1.85-9.24-2.7-18.66-3.47-28.04-.68-8.28-1.22-16.81.05-25.06,1.02-6.65,3.27-12.71,7.58-17.64.42-.33.82-.73,1.18-1.22.04-.06.09-.12.13-.19.38-.38.78-.76,1.19-1.12.98-.87,1.5-1.86,1.66-2.84,11.89-16.54,23.71-33.15,35.77-49.57,11.47-15.62,24.03-31.3,40.31-42.09,14.7-9.74,35.34-17.6,52.91-11.44,9.71,3.4,11.12,11.28,10.27,20.7-.97,10.78-2.76,21.49-4.47,32.17-3.26,20.36-6.72,40.98-5.82,61.68.44,10.2,1.91,20.52,4.95,30.28,2.41,7.75,6.23,15.59,13.77,19.39,8.01,4.04,18.15,3.92,26.89,4.38,11.03.59,22.1.52,33.12-.22,21.55-1.43,42.32-6.39,63.54-10.04,18.22-3.13,45.87-7.29,58.25,10.28,10.32,14.65,13.03,34.32,11.34,51.81Z"/>
  <path d="M148.82,52.66c-.19-6.42-10.19-6.45-10,0,.35,11.76-2.7,25.3-11.1,34.05-3.33,3.47-8.26,6.17-13.15,4.36-4.22-1.56-5.04-6.76-9.1-8.7-4.82-2.3-8.05,1.14-11.56,3.93-3.21,2.56-10.79,7.31-15.16,5.3-3.94-1.81-2.73-9.51-2.39-12.83.71-6.8,2.61-13.42,5.16-19.74,2.4-5.97-7.27-8.56-9.64-2.66-3.12,7.75-5.06,15.87-5.68,24.21-.44,5.94,0,12.82,4.41,17.33,4.49,4.59,11.12,4.48,16.88,2.78,3.31-.98,6.6-2.46,9.51-4.34,1.43-.92,2.79-1.96,4.09-3.05.27-.22.51-.46.77-.69.08.09.16.18.27.28,1.33,5.38,9.68,8.28,14.37,8.63,6.5.49,12.49-2.34,17.19-6.67,11.13-10.26,15.56-27.59,15.13-42.21Z"/>
  <path d="M208.58,103.39c-3.35-18.03-4.75-36.29-4.34-54.62.14-6.44-9.86-6.44-10,0-.13,5.59-.06,11.17.16,16.74-1.08-1-2.61-1.54-4.46-1.11-9.09,2.11-18.17,4.23-27.26,6.35-.2-5.59-.24-11.19-.09-16.79.17-6.44-9.83-6.43-10,0-.36,13.92.35,27.8,2.14,41.62.81,6.29,10.82,6.37,10,0-.64-4.91-1.13-9.83-1.49-14.76.27-.02.54-.06.83-.12l28.54-6.64c.92-.21,1.64-.6,2.19-1.11.73,11.1,2.11,22.14,4.15,33.11,1.17,6.32,10.81,3.64,9.64-2.66Z"/>
  <path d="M264.83,64.3c-3.25-10.52-15.21-15.63-25.43-15.5-2.52.03-4.05,1.59-4.6,3.46-2.2-1.71-5.5-1.82-7.04,1.38-5.62,11.66-8.95,26.59-5.32,39.39,4.01,14.14,19.29,6.68,27.39.73,8.88-6.52,18.69-17.55,15.01-29.47ZM244.13,85.59c-2.89,2.1-7,4.98-10.6,5.54-.64.1-.94.24-1.06.36-.02-.11-.09-.28-.23-.52-.97-1.57-.83-4.44-.95-6.18-.6-9.01,1.18-17.96,5.1-26.09.1-.22.19-.43.26-.64.73.48,1.64.77,2.75.75,5.69-.07,13.64,2.09,15.79,8.16,2.56,7.24-5.93,14.92-11.05,18.63Z"/>
  <path d="M368.74,104.63c-3.13-9.12-6.26-18.24-9.39-27.36-2.06-6-3.93-17.69-13.03-14.53-3.44,1.19-6.54,4-9.45,6.15-3.58,2.64-7.08,5.4-10.48,8.27-6.59,5.58-12.74,11.63-18.5,18.06-4.29,4.78,2.76,11.87,7.07,7.07,5.43-6.05,11.22-11.76,17.36-17.05.53,1.09,1.53,1.99,3.07,2.4,5.14,1.35,10.41,1.78,15.68,1.09.53-.07,1.04-.21,1.52-.38,2.17,6.31,4.33,12.62,6.5,18.93,2.08,6.05,11.74,3.45,9.64-2.66ZM340.6,78.55c1.59-1.2,3.19-2.39,4.82-3.53.2-.14,1.25-.73,2.16-1.3.09.25.17.5.26.75l1.53,4.46c-2.96.25-5.86.15-8.77-.37Z"/>
  <path d="M470.99,102.1c-3.67-6.9-6.99-14.19-11.1-20.84-3.4-5.5-8.46-8.09-14.75-5.53-6.63,2.69-12.77,6.88-18.35,11.31-.89.71-3.24,2.49-3.1,2.51-.82-.12-2.87-3.88-3.31-4.47-2.57-3.48-5.14-6.96-7.71-10.43-1.48-2-4.47-3.52-6.84-1.79-10.82,7.9-19.77,17.68-26.44,29.33-3.2,5.59,5.43,10.64,8.63,5.05,5.02-8.77,11.46-16.53,19.23-22.93,3.22,4.78,6.48,9.83,10.4,13.69,5.41,5.33,11.05.24,15.52-3.34,2.84-2.27,5.87-4.31,8.99-6.15,1.74-1.03,3.52-2.05,5.35-2.91,2.11-.98,2.36-1.14,3.74.72,2.03,2.74,3.37,6.3,4.98,9.33,2.04,3.84,4.08,7.67,6.12,11.51,3.02,5.68,11.66.64,8.63-5.05Z"/>
  <path d="M208.48,179.73c-3.14-10.94-6.86-21.69-11.16-32.23-2.4-5.88-12.07-3.31-9.64,2.66,4.3,10.54,8.01,21.29,11.16,32.23,1.77,6.17,11.42,3.55,9.64-2.66Z"/>
  <path d="M197.93,128.21c-1.1-.37-2.19-.73-3.29-1.1.17-.54.33-1.07.5-1.61,1.9-6.16-7.75-8.8-9.64-2.66-.11.37-.23.73-.34,1.1-.94-.31-1.87-.62-2.81-.94-6.12-2.04-8.74,7.61-2.66,9.64l2.52.84c-.24.77-.47,1.54-.71,2.31-1.9,6.16,7.75,8.8,9.64,2.66l.55-1.8c1.19.4,2.38.8,3.58,1.19,6.12,2.04,8.74-7.61,2.66-9.64Z"/>
  <path d="M253.88,114c-4.53-5.32-11.91-6.57-18.28-4.14-7.17,2.73-11.36,9.49-13.36,16.59-1.75,6.2,7.9,8.85,9.64,2.66,1.16-4.13,3.3-8.67,7.71-10.09,4.77-1.54,8.11,1.79,8.62,6.4.54,4.86-1.83,9.78-3.71,14.12-2.05,4.75-4.12,9.5-6.19,14.24-2.54,5.84,6.07,10.94,8.63,5.05,5.51-12.69,18-31.82,6.92-44.83Z"/>
  <path d="M251.15,179.34c-.35-.26-.69-.53-1.04-.79.56-1.27,1.09-2.56,1.56-3.9.9-2.55-1.02-5.47-3.49-6.15-2.76-.76-5.25.94-6.15,3.49-.04.1-.08.21-.12.31-.85-.64-1.69-1.29-2.54-1.93-2.15-1.64-5.59-.34-6.84,1.79-1.5,2.57-.36,5.2,1.79,6.84.99.75,1.97,1.5,2.96,2.26-.41.59-.84,1.17-1.29,1.74-1.68,2.11-2.06,5.01,0,7.07,1.74,1.74,5.38,2.12,7.07,0,.74-.92,1.43-1.86,2.09-2.81.31.24.63.48.94.72,2.15,1.64,5.59.34,6.84-1.79,1.5-2.57.36-5.2-1.79-6.84Z"/>
  <path d="M1082.92,322.89c-24.92-64.17-53.92-126.74-86.88-187.18-3.72-6.81-7.02-15.31-12.22-21.13-4.8-5.36-11.99-4.9-17.75-1.4-6.47,3.93-12.24,9.44-18.03,14.3-6.31,5.29-12.54,10.68-18.68,16.15-24.16,21.51-47.07,44.4-68.61,68.53-24.17,27.09-46.62,55.67-67.18,85.6-3.65,5.32,4.68,10.85,8.32,5.55,34.57-50.33,74.5-96.85,119.12-138.53,11.17-10.44,22.63-20.57,34.35-30.39,2.93-2.45,5.88-4.89,8.84-7.3,2.54-2.07,6.1-6.05,9.51-6.44,3.74-.43,5.51,5.3,7.07,8.09,1.98,3.55,3.94,7.12,5.89,10.69,15.6,28.56,30.32,57.59,44.14,87.05,15.55,33.14,29.94,66.82,43.19,100.95,2.33,5.99,11.23,1.43,8.92-4.53Z"/>
  <path d="M1147.7,285.68c-21.91-11.7-49.39-9.82-69.41,4.83-5.2,3.8,1.48,11.25,6.64,7.48,15.58-11.4,37.34-13,54.82-5.15,17.3,7.77,27.21,24.96,26.41,43.74-.82,19.17-12.05,36.09-30.82,41.69-11.29,3.37-23.29,3.03-34.88,1.83-13.23-1.36-26.47-3.54-39.48-6.29-13.1-2.77-26.05-6.31-38.59-11.03-12.34-4.64-24.28-10.27-36.38-15.51-24.52-10.61-49.97-17.9-76.68-20.12-26.17-2.17-52.08.7-77.52,6.92-24.91,6.09-50.36,14.64-76.34,12.84-12.05-.83-28.83-3.68-35.97-14.77-7.06-10.97-1.77-26.3,4.96-36.09,15.17-22.08,45.21-28.01,67.85-13.84,5.46,3.41,11.01-4.9,5.55-8.32-22.09-13.82-51.03-12.38-70.99,4.66-16.86,14.39-30.35,45.41-11.82,63.85,8.99,8.94,22.35,12.44,34.56,13.99,14.02,1.77,28.34.25,42.16-2.39,29.25-5.6,57.3-15.79,87.27-17.33,30.61-1.57,61.23,3.31,89.83,14.33,14.06,5.42,27.63,12.03,41.55,17.78,14.13,5.83,28.67,10.35,43.6,13.68,14.3,3.19,28.85,5.69,43.41,7.35,12.7,1.45,26,1.96,38.48-1.34,21.51-5.69,35.95-22.64,39.53-44.42,3.83-23.29-6.65-47.13-27.72-58.38Z"/>
  <path d="M1555.73,202.02c-5.6-29.83-13.18-59.23-22.7-88.05-1.44-4.35-6.59-4.63-9.14-1.19-6.5,8.76-12.99,17.52-19.49,26.29-5.28-9.07-10.83-17.99-16.66-26.72-1.62-2.43-4.24-2.96-6.84-1.79-5.35,2.4-7.29,7.91-9.04,13.09-2.34,6.9-4.56,13.85-6.69,20.82-4.37,14.24-8.32,28.61-11.91,43.07-1.55,6.25,8.09,8.91,9.64,2.66,3.13-12.61,6.54-25.15,10.26-37.61,1.82-6.07,3.7-12.13,5.66-18.15.98-3,1.81-8.16,3.76-11.73,5.95,9.15,11.61,18.47,16.96,27.98,2,3.55,6.5,2.88,8.63,0,6.08-8.2,12.16-16.4,18.24-24.6,8.11,25.79,14.68,52.04,19.67,78.62,1.19,6.32,10.83,3.64,9.64-2.66Z"/>
  <path d="M1595.28,164.34c-.12,4.79-.73,9.45-2.03,14.07-.8,2.83-2.17,9.44-5.42,10.55-2.92,1-6.66-4.49-7.82-6.67-1.93-3.62-2.37-7.42-1.92-11.45.72-6.38-9.28-6.33-10,0-1.27,11.19,6.42,28.72,19.77,28.32,14.4-.42,17.16-24.43,17.42-34.83.16-6.44-9.84-6.43-10,0Z"/>
  <path d="M1636.77,156.16c-9.11,1.73-20.71,7.83-16.85,19.12.94,2.73,6.02,6.79,5.02,9.39-.82,2.13-4.12,4.25-5.86,5.64-2.48,1.98-5.15,3.65-7.92,5.2-5.62,3.14-.58,11.78,5.05,8.63,6.86-3.84,18.95-10.97,19.17-20.01.1-3.94-2.17-6.74-4.39-9.71-1.6-2.14-2.53-3.66-.16-5.83,2.13-1.95,5.88-2.28,8.59-2.79,6.32-1.2,3.64-10.84-2.66-9.64Z"/>
  <path d="M1665.01,165.66c-.3-6.41-10.3-6.44-10,0,.45,9.52.9,19.05,1.35,28.57.3,6.41,10.3,6.44,10,0-.45-9.52-.9-19.05-1.35-28.57Z"/>
  <path d="M1664.19,129.71c-1.49,2.28-2.99,4.55-4.48,6.83-.16-.21-.32-.42-.47-.63-1.55-2.2-4.37-3.24-6.84-1.79-2.18,1.27-3.36,4.62-1.79,6.84,1.06,1.51,2.2,2.92,3.42,4.25-.23.36-.47.71-.7,1.07-3.45,5.25,4.65,10.13,8.33,5.46,2.25,1.46,5.5.41,6.8-1.82,1.33-2.27.58-4.9-1.33-6.47l5.7-8.69c3.54-5.4-5.11-10.41-8.63-5.05Z"/>
  <path d="M1723.62,147.47c-.11-6.43-10.11-6.45-10,0,.15,8.83.11,17.65-.17,26.48-.13,4.25-.31,8.49-.55,12.74-.07,1.24.1,4.1-.16,6.56-9.8-10.13-18.6-21.1-26.31-32.94-2.91-4.47-8.68-2.25-9.32,2.52-1.4,10.43-1.72,20.87-.97,31.37.46,6.38,10.46,6.43,10,0-.41-5.76-.49-11.5-.26-17.23,7.39,9.97,15.54,19.35,24.44,28.03,1.44,1.4,4.3,2.1,6.06.78,7.41-5.54,6.37-15.65,6.76-24,.52-11.43.66-22.88.47-34.32Z"/>
  <path d="M1780.74,177.8c-2.87-4.59-11.17-1.69-9.14,3.85,2.08,5.66.26,12.79-5.82,15.17-6.48,2.54-13.55-1.61-15.15-8.15-2.91-11.88,7.3-36.55,22.38-33.25,6.27,1.37,8.95-8.26,2.66-9.64-12.52-2.74-23.15,5.09-28.91,15.75-5.57,10.29-9.6,24.1-3.7,35.09,5.06,9.43,17.46,13.44,27.18,9.12,2.86-1.27,5.27-3.19,7.19-5.51.05,1.85-.03,3.74-.25,5.66-.75,6.38,9.26,6.33,10,0,1.16-9.89-1.16-19.67-6.44-28.09Z"/>
  <path d="M1826.07,178.13c-4.14-5.1-10.32-7.53-15.16-11.78-2.56-2.24-4.62-5.29-2.97-8.79,2.04-4.31,7.2-4.15,10.2-1.02,4.47,4.64,11.54-2.43,7.07-7.07-6.21-6.45-16.69-7.18-23.17-.67-6.15,6.18-5.91,15.83-.47,22.3,4.64,5.52,12.27,7.69,16.73,13.27,7.74,9.69-8.04,17.5-14.95,20.34-5.87,2.41-3.3,12.09,2.66,9.64,8.04-3.3,16.46-6.93,21.11-14.73,4.1-6.85,4.03-15.22-1.06-21.49Z"/>
  <path d="M319.93,558.64c-22.1,15.18-45.47,28.37-69.9,39.43-3.48,1.58-3.1,5.26-.99,7.43-4.2,19.04-7.7,38.22-10.47,57.53-.9,6.29,8.73,9.01,9.64,2.66,1.75-12.18,3.79-24.31,6.1-36.39.84,2.94,3.86,5.13,6.96,2.83,8.44-6.29,17.6-11.32,27.53-14.85,6.02-2.14,3.43-11.8-2.66-9.64-10.74,3.82-20.77,9.04-29.92,15.85-.37.28-.68.58-.95.9,1.31-6.59,2.69-13.17,4.17-19.73,22.84-10.64,44.75-23.12,65.52-37.39,5.27-3.62.28-12.29-5.05-8.63Z"/>
  <path d="M328.57,662.05c-.77-7.49-7.44-8.75-13.72-9.73-8.67-1.35-17.37-1.61-26.1-.81-.28.03-.55.08-.8.14-.76-.54-1.77-.82-3.04-.66-10.99,1.34-17.04,13.2-12.99,23.36,4.78,12,19.82,15.23,31.32,13.73,12.74-1.66,26.81-11.59,25.34-26.03ZM318.66,663.33c.03,1.08-.12,2.14-.46,3.16-.6,2.13-1.79,4.03-3.27,5.65-2.72,3-6.5,4.72-10.4,5.61-6.76,1.54-16.06,1.14-21.26-4.09-2.93-2.94-4.32-11.96,1.63-12.69.3-.04.58-.1.85-.18.76.53,1.75.82,2.99.7,5.08-.47,10.17-.63,15.27-.35,2.32.13,4.64.34,6.94.64,1.75.23,5.43.18,6.87,1.2,1.42.22,1.69.34.83.33Z"/>
  <path d="M367.98,729.52c-7.89-.02-15.78-.05-23.67-.07-1.94,0-8.11,1.11-9.68-.17-.47-.39.38-1.7.82-3.16l1.71-5.63c4.47-14.69,8.94-29.38,13.41-44.07,1.88-6.17-7.77-8.81-9.64-2.66-2.85,9.38-5.71,18.75-8.56,28.13-1.52,5-3.04,10-4.57,15-1.21,3.98-3.24,8.35-3.48,12.52-.49,8.3,7.54,9.95,14.07,10.01,9.86.09,19.73.06,29.59.09,6.44.02,6.44-9.98,0-10Z"/>
  <path d="M399.13,704.53c-1.51,10.85-3.01,21.71-4.52,32.56-.87,6.29,8.76,9.02,9.64,2.66,1.51-10.85,3.01-21.71,4.52-32.56.87-6.29-8.76-9.02-9.64-2.66Z"/>
  <path d="M416.93,685.53c-1.15-1.11-2.3-2.22-3.44-3.32,1.08-1.37,2.24-2.68,3.48-3.93,4.54-4.57-2.53-11.64-7.07-7.07-1.29,1.3-2.49,2.64-3.61,4.04l-3.23-3.12c-4.63-4.47-11.71,2.59-7.07,7.07l4.72,4.56c-.9,1.69-1.73,3.44-2.48,5.24-1.04,2.5,1.12,5.5,3.49,6.15,2.88.79,5.11-.99,6.15-3.49.1-.23.21-.46.31-.69l1.69,1.63c4.63,4.47,11.71-2.59,7.07-7.07Z"/>
  <path d="M487.45,706.31c-7.59-13.17-24.35-19.87-38.86-15.36-1.08.33-1.88.91-2.45,1.62-12.38,4.49-22.89,14-27.73,26.39-6.62,16.95,6.84,29.95,22.45,33.69,14.99,3.59,31.48,3.41,42.15-9.22,8.66-10.25,11.3-25.2,4.44-37.11ZM466.65,743.33c-7.17,2.78-15.87,1.42-23.13-.32-7.02-1.69-16.08-5.64-16.95-13.94-.69-6.63,4.49-13.75,8.88-18.2,4.99-5.06,11.18-8.38,18.04-10.1.85-.21,1.54-.58,2.07-1.05,10.18-1.05,20.97,4.69,24.66,14.58,4.15,11.1-2.7,24.82-13.57,29.03Z"/>
  <path d="M1421.22,846.07c-7.62.42-15.25.15-22.77-1.22-4.44-.81-18.15-2.33-19.18-7.68-1.02-5.31,5.18-13.64,8.07-17.72,3.92-5.55,8.86-10.41,14.37-14.37,5.18-3.73.19-12.4-5.05-8.63-7.19,5.18-13.38,11.3-18.42,18.61-4.52,6.56-10.72,16.56-8.7,24.89,2.14,8.82,12.21,11.23,19.87,13.16,10.38,2.61,21.12,3.56,31.8,2.97,6.4-.36,6.44-10.36,0-10Z"/>
  <path d="M1451.42,805.97c-.65-8.58-8.02-16.14-16.6-16.39-1.56-2.5-5.05-3.79-7.63-1.02-6.51,7.02-15.1,19.3-12,29.45,2.75,8.99,14.18,11.21,22.02,8.27,8.19-3.07,14.89-11.26,14.2-20.32ZM1433.29,817.11c-4.91,1.59-9.53-.25-8.2-5.85.99-4.17,3.21-8.14,5.86-11.66.5.11,1.05.14,1.67.06,4.57-.54,8.9,2.76,8.86,7.65-.04,4.55-4.09,8.47-8.19,9.79Z"/>
  <path d="M1503.29,747.93c.01,7.51-.17,15.01-.59,22.51-.2,3.58-.45,7.17-.76,10.74-.17,1.95-.34,3.9-.54,5.85-.03.25-.1.64-.18,1.06-1.81-1.35-3.52-3.12-4.87-4.26-2.81-2.39-5.52-4.9-8.14-7.5-5.14-5.11-9.88-10.59-14.17-16.43-2.4-3.27-7.98-3.31-9.14,1.19-3.47,13.54-4.5,27.46-2.87,41.34.74,6.32,10.75,6.39,10,0-1.12-9.58-.99-19.09.44-28.51,3.3,3.92,6.78,7.69,10.49,11.26,3.28,3.15,6.71,6.13,10.26,8.96,2.96,2.35,6.42,5.93,10.53,5.64,8.98-.64,7.85-14.39,8.35-20.56.83-10.41,1.2-20.85,1.18-31.3,0-6.43-10.01-6.45-10,0Z"/>
  <path d="M1544.54,785.12c-1.08-17.73-1.58-35.48-1.49-53.24.03-6.44-9.97-6.44-10,0-.09,17.76.41,35.51,1.49,53.24.39,6.39,10.39,6.44,10,0Z"/>
  <path d="M1553.65,714.03l-40.26,6.48c-6.34,1.02-3.65,10.66,2.66,9.64,13.42-2.16,26.84-4.32,40.26-6.48,6.34-1.02,3.65-10.66-2.66-9.64Z"/>
  <path d="M1595.56,741.1c-8.35-17.53-15.12-35.7-20.37-54.39-1.54-5.48-9.67-4.31-9.82,1.33-.63,23.77-2.49,47.47-5.57,71.04-.83,6.36,9.18,6.3,10,0,1.08-8.24,1.99-16.5,2.76-24.77,1.03-.69,2.06-1.38,3.1-2.06,2.17-1.45,3.32-4.48,1.79-6.84-.85-1.33-2.35-2.28-3.92-2.46.19-2.44.38-4.89.55-7.33,3.81,10.36,8.09,20.55,12.85,30.53,2.77,5.81,11.39.74,8.63-5.05Z"/>
  <path d="M1630.27,721.82c-5.12,1.27-10.25,1.97-15.53,1.91-1.88-.02-5.03.34-6.77-.52-1.84-.91-1.84-.8-1.48-3.04,1.34-8.49,5.69-16.44,11.42-22.74,4.32-4.75-2.73-11.84-7.07-7.07-4.62,5.08-8.34,10.72-10.95,17.09-2.17,5.29-4.86,12.45-3.1,18.17,1.68,5.46,7.13,7.26,12.27,7.8,7.99.83,16.08-.03,23.85-1.96,6.24-1.55,3.6-11.19-2.66-9.64Z"/>
  <path d="M1687.42,665.97c-16.45,3.01-32.91,6.02-49.36,9.03-6.32,1.16-3.64,10.8,2.66,9.64,5.26-.96,10.51-1.92,15.77-2.88-.79.8-1.29,1.92-1.29,3.37v28.57c0,6.43,10,6.45,10,0v-28.57c0-2.3-1.27-3.77-2.91-4.43,9.27-1.69,18.54-3.39,27.8-5.08,6.32-1.16,3.64-10.8-2.66-9.64Z"/>
</svg>